<svg  class="icon" viewBox="0 0 1024 1024" version="1.1" xmlns="http://www.w3.org/2000/svg"
     width="64" height="64">
    <path d="M794.576 960.461h-568.582c-44.047 0-79.511-36.038-79.511-79.511v-558.287c0-44.047 36.038-79.511 79.511-79.511h94.384c15.443 0 28.603 12.585 28.603 28.603s-12.585 28.603-28.603 28.603h-94.384c-12.585 0-22.881 10.297-22.881 22.881v558.287c0 12.585 10.297 22.881 22.881 22.881h568.582c12.585 0 22.881-10.297 22.881-22.881v-558.287c0-12.585-10.297-22.881-22.881-22.881h-80.082c-15.443 0-28.603-12.585-28.603-28.603s12.585-28.603 28.603-28.603h80.082c44.047 0 79.511 36.038 79.511 79.511v558.287c0.571 43.473-35.465 79.511-79.511 79.511z"
          fill="#1296db"/>
    <path d="M341.54 470.816h338.062c10.297 0 18.307 8.011 18.307 18.307v29.171c0 10.297-8.011 18.307-18.307 18.307h-338.062c-10.297 0-18.307-8.011-18.307-18.307v-29.171c0-10.297 8.011-18.307 18.307-18.307z"
          fill="#1296db"/>
    <path d="M677.885 390.16h-319.185c-28.603 0-52.053-23.453-52.053-52.053v-130.419c0-28.603 23.453-52.053 52.053-52.053h54.915v-42.901c0-28.603 23.453-52.053 52.053-52.053h105.824c28.603 0 52.053 23.453 52.053 52.053v42.901h54.915c28.603 0 52.053 23.453 52.053 52.053v130.419c-0.571 28.603-24.025 52.053-52.627 52.053zM363.846 332.96h309.46v-120.694h-78.368c-15.443 0-28.603-12.585-28.603-28.603v-66.355h-96.1v66.925c0 15.443-12.585 28.603-28.603 28.603h-78.368v120.125z"
           fill="#1296db"/>
    <path d="M341.54 594.37h338.062c10.297 0 18.307 8.011 18.307 18.307v29.171c0 10.297-8.011 18.307-18.307 18.307h-338.062c-10.297 0-18.307-8.011-18.307-18.307v-29.171c0-9.726 8.011-18.307 18.307-18.307z"
           fill="#1296db"/>
    <path d="M341.54 744.812h338.062c10.297 0 18.307 8.011 18.307 18.307v29.171c0 10.297-8.011 18.307-18.307 18.307h-338.062c-10.297 0-18.307-8.011-18.307-18.307v-29.171c0-9.726 8.011-18.307 18.307-18.307z"
          fill="#1296db"/>
</svg>
